<?xml version="1.0" encoding="utf-8"?>
<!-- Generator: Adobe Illustrator 21.1.0, SVG Export Plug-In . SVG Version: 6.00 Build 0)  -->
<svg version="1.1" id="Capa_1" xmlns="http://www.w3.org/2000/svg" xmlns:xlink="http://www.w3.org/1999/xlink" x="0px" y="0px"
	 viewBox="0 0 512 512" style="enable-background:new 0 0 512 512;" xml:space="preserve">
<style type="text/css">
	.st0{fill:#F8F5E5;}
</style>
<g>
	<g>
		<ellipse class="st0" cx="256" cy="453.8" rx="21.5" ry="23.3"/>
		<path class="st0" d="M304.9,34.9h-97.9c-2.6,0-4.7,2.3-4.7,5.1v1.4c0,2.8,2.1,5.1,4.7,5.1H305c2.6,0,4.7-2.3,4.7-5.1v-1.4
			C309.7,37.2,307.5,34.9,304.9,34.9z"/>
		<path class="st0" d="M352.7,512c0,0,43,0,43-46.5V46.5c0-46.5-43-46.5-43-46.5H159.3c0,0-43,0-43,46.5v418.9
			c0,46.5,43,46.5,43,46.5H352.7z M137.8,46.5c0-11.2,3.2-16.5,9.6-19.9c4.5-2.4,9.5-3.4,11.9-3.4h193.3c2.3,0,7.3,0.9,11.9,3.4
			c6.4,3.5,9.6,8.7,9.6,19.9v11.6H137.8V46.5z M137.8,81.5h236.3v314.2H137.8V81.5z M137.8,465.5v-46.5h236.3v46.5
			c0,11.2-3.2,16.5-9.6,19.9c-4.5,2.4-9.5,3.4-11.9,3.4H159.3c-2.3,0-7.3-0.9-11.9-3.4C141.1,481.9,137.8,476.7,137.8,465.5z"/>
	</g>
</g>
</svg>
