<?xml version="1.0" encoding="utf-8"?>
<!-- Generator: Adobe Illustrator 21.1.0, SVG Export Plug-In . SVG Version: 6.00 Build 0)  -->
<svg version="1.1" id="Layer_1" xmlns="http://www.w3.org/2000/svg" xmlns:xlink="http://www.w3.org/1999/xlink" x="0px" y="0px"
	 viewBox="0 0 405 154" style="enable-background:new 0 0 405 154;" xml:space="preserve">
<style type="text/css">
	.st0{fill:#00D18B;}
	.st1{fill:#5CABFF;}
	.st2{fill:#FF4D53;}
	.st3{fill:#FBCA26;}
	.st4{fill:none;stroke:#380055;stroke-width:11.3467;stroke-linecap:round;stroke-linejoin:round;stroke-miterlimit:10;}
	.st5{opacity:0.2;}
	.st6{fill:#9FB676;stroke:#380055;stroke-width:11.3467;stroke-linecap:round;stroke-linejoin:round;stroke-miterlimit:10;}
	.st7{fill:#380055;}
	.st8{fill:#E1554B;stroke:#06435A;stroke-width:3.1877;stroke-linecap:round;stroke-miterlimit:10;}
	.st9{fill:#E1554B;}
	.st10{fill:#2582DF;}
	.st11{fill:#FABA5E;}
	.st12{fill:none;stroke:#06435A;stroke-width:3.1877;stroke-linecap:round;stroke-miterlimit:10;}
	.st13{fill:#9FB676;}
</style>
<g>
	<g>
		<circle class="st0" cx="98.1" cy="63" r="33.5"/>
		<circle class="st1" cx="279.8" cy="63" r="33.5"/>
		<circle class="st2" cx="363.5" cy="63" r="33.5"/>
		<circle class="st3" cx="182.2" cy="63" r="33.5"/>
		<circle class="st4" cx="182.2" cy="63" r="33.5"/>
		<path class="st5" d="M98.1,29.5c-18.5,0-33.5,15-33.5,33.5c0,0.5,0.1,1.1,0.1,1.6c5.4-11.3,16.9-19.1,30.2-19.1
			c17.9,0,32.5,14.1,33.4,31.9c2.1-4.4,3.3-9.2,3.3-14.4C131.6,44.5,116.6,29.5,98.1,29.5z"/>
		<path class="st5" d="M279.8,29.5c-18.5,0-33.5,15-33.5,33.5c0,0.5,0.1,1.1,0.1,1.6c5.4-11.3,16.9-19.1,30.2-19.1
			c17.9,0,32.5,14.1,33.4,31.9c2.1-4.4,3.3-9.2,3.3-14.4C313.3,44.5,298.3,29.5,279.8,29.5z"/>
		<path class="st5" d="M360.3,45.5c17.9,0,32.5,14.1,33.4,31.9c2.1-4.4,3.3-9.2,3.3-14.4c0-18.5-15-33.5-33.5-33.5
			s-33.5,15-33.5,33.5c0,0.5,0.1,1.1,0.1,1.6C335.5,53.3,347,45.5,360.3,45.5z"/>
		<path class="st5" d="M182.2,29.5c-18.5,0-33.5,15-33.5,33.5c0,0.5,0.1,1.1,0.1,1.6c5.4-11.3,16.9-19.1,30.2-19.1
			c17.9,0,32.5,14.1,33.4,31.9c2.1-4.4,3.3-9.2,3.3-14.4C215.7,44.5,200.7,29.5,182.2,29.5z"/>
		<g>
			<line class="st6" x1="51.1" y1="13.3" x2="51.1" y2="98.9"/>
			<line class="st6" x1="94.2" y1="9.2" x2="8" y2="9.2"/>
		</g>
		<g>
			<circle class="st4" cx="98.1" cy="63" r="33.5"/>
			<line class="st6" x1="131.6" y1="63" x2="131.6" y2="98.9"/>
		</g>
		<g>
			<line class="st6" x1="131.6" y1="63" x2="131.6" y2="98.9"/>
		</g>
		<g>
			<line class="st6" x1="148.8" y1="60.3" x2="148.8" y2="145"/>
			<circle class="st4" cx="182.2" cy="63" r="33.5"/>
		</g>
		<g>
			<line class="st6" x1="230.9" y1="13.3" x2="230.9" y2="98.9"/>
			<line class="st6" x1="274" y1="9.2" x2="187.8" y2="9.2"/>
		</g>
		<g>
			<circle class="st4" cx="279.8" cy="63" r="33.5"/>
			<line class="st6" x1="313.3" y1="63" x2="313.3" y2="98.9"/>
		</g>
		<g>
			<line class="st6" x1="330.1" y1="60.3" x2="330.1" y2="145"/>
			<circle class="st4" cx="363.5" cy="63" r="33.5"/>
		</g>
	</g>
	<g>
		<path class="st7" d="M168.9,150.7c-1.3,0-2.4-1.1-2.4-2.4v-17.6c0-5.5,4.5-10,10.5-10c2.5,0,5.1,0.8,7,2.5c0.9,0.8,2.2,0.8,3.1,0
			c1.9-1.7,4.5-2.5,7-2.5c6,0,10.5,4.5,10.5,10v17.6c0,1.3-1.1,2.4-2.4,2.4h-0.7c-1.3,0-2.4-1.1-2.4-2.4V132c0-3.7-2.1-6.1-5.3-6.1
			c-3.5,0-5.7,2-5.7,7v15.5c0,1.3-1.1,2.4-2.4,2.4h-0.7c-1.3,0-2.4-1.1-2.4-2.4v-15.5c0-5-2.3-7-5.7-7c-3.2,0-5.3,2.4-5.3,6.1v16.4
			c0,1.3-1.1,2.4-2.4,2.4H168.9z"/>
		<path class="st7" d="M276.2,114c1.9,0,3,1.5,3,3c0,1.5-1.1,3-3,3c-1.9,0-3-1.5-3-3C273.2,115.5,274.2,114,276.2,114z"/>
		<g>
			<path class="st8" d="M310.2,139.8"/>
			<g>
				<circle class="st9" cx="296.7" cy="136.1" r="11.9"/>
				<circle class="st10" cx="253.9" cy="136.6" r="11.9"/>
				<path class="st11" d="M232.7,136.4c-0.1-5.6-4.6-10.2-10.3-10.2c-5.6,0-10.2,4.5-10.3,10.2H232.7z"/>
				<circle class="st2" cx="296.7" cy="136.1" r="11.9"/>
				<circle class="st1" cx="253.9" cy="136.6" r="11.9"/>
				<path class="st3" d="M232.7,136.4c-0.1-5.6-4.6-10.2-10.3-10.2c-5.6,0-10.2,4.5-10.3,10.2H232.7z"/>
				<path class="st5" d="M294.3,129.2c6.5,0,11.9,5.3,11.9,11.9c0,0.9-0.1,1.8-0.3,2.7c1.7-2.1,2.8-4.7,2.8-7.6
					c0-6.5-5.3-11.9-11.9-11.9c-5.6,0-10.3,3.9-11.5,9.2C287.4,130.8,290.6,129.2,294.3,129.2z"/>
				<path class="st5" d="M253.9,124.7c-5.5,0-10.2,3.8-11.5,8.9c2.2-2.7,5.5-4.4,9.2-4.4c6.5,0,11.9,5.3,11.9,11.9
					c0,1-0.1,2-0.4,2.9c1.6-2,2.6-4.6,2.6-7.4C265.8,130,260.5,124.7,253.9,124.7z"/>
				<path class="st5" d="M222.4,126.3c-3.7,0-7,2-8.8,4.9c1.9-1.3,4.2-2,6.6-2c4.9,0,9.1,3,10.9,7.2h1.5
					C232.6,130.8,228,126.3,222.4,126.3z"/>
				<path class="st7" d="M296.7,150.4c-7.9,0-14.2-6.4-14.2-14.2c0-7.9,6.4-14.2,14.2-14.2c7.9,0,14.2,6.4,14.2,14.2
					C311,144,304.6,150.4,296.7,150.4z M296.7,126.6c-5.2,0-9.5,4.2-9.5,9.5c0,5.2,4.2,9.5,9.5,9.5c5.2,0,9.5-4.2,9.5-9.5
					C306.2,130.9,302,126.6,296.7,126.6z"/>
			</g>
			<g>
				<line class="st9" x1="308.6" y1="136.5" x2="308.6" y2="148.4"/>
				<path class="st7" d="M308.6,150.8c-1.3,0-2.4-1.1-2.4-2.4v-11.9c0-1.3,1.1-2.4,2.4-2.4s2.4,1.1,2.4,2.4v11.9
					C311,149.7,309.9,150.8,308.6,150.8z"/>
			</g>
		</g>
		<g>
			<path class="st12" d="M267.4,132.9"/>
			<g>
				<path class="st7" d="M253.9,150.8c-7.9,0-14.2-6.4-14.2-14.2s6.4-14.2,14.2-14.2s14.2,6.4,14.2,14.2S261.8,150.8,253.9,150.8z
					 M253.9,127.1c-5.2,0-9.5,4.2-9.5,9.5c0,5.2,4.2,9.5,9.5,9.5c5.2,0,9.5-4.2,9.5-9.5C263.4,131.4,259.1,127.1,253.9,127.1z"/>
			</g>
			<path class="st7" d="M265.8,138.6c-1.3,0-2.4-1.1-2.4-2.4v-27.9c0-1.3,1.1-2.4,2.4-2.4s2.4,1.1,2.4,2.4v27.9
				C268.2,137.5,267.1,138.6,265.8,138.6z"/>
		</g>
		<g>
			<line class="st7" x1="276.2" y1="148.3" x2="276.2" y2="124.3"/>
			<path class="st7" d="M276.2,150.7c-1.3,0-2.4-1.1-2.4-2.4v-24.1c0-1.3,1.1-2.4,2.4-2.4s2.4,1.1,2.4,2.4v24.1
				C278.6,149.7,277.5,150.7,276.2,150.7z"/>
		</g>
		<g>
			<path class="st7" d="M222.4,150.8c-7.9,0-14.2-6.4-14.2-14.2s6.4-14.2,14.2-14.2s14.2,6.4,14.2,14.2c0,1.3-1.1,2.4-2.4,2.4
				s-2.4-1.1-2.4-2.4c0-5.2-4.2-9.5-9.5-9.5c-5.2,0-9.5,4.2-9.5,9.5c0,5.2,4.2,9.5,9.5,9.5c3.3,0,6.4-1.7,8.1-4.6
				c0.7-1.1,2.2-1.5,3.3-0.8c1.1,0.7,1.5,2.2,0.8,3.3C232,148.2,227.4,150.8,222.4,150.8z"/>
			<g>
				<line class="st13" x1="210.6" y1="136.6" x2="234.3" y2="136.6"/>
				<path class="st7" d="M234.3,139h-23.7c-1.3,0-2.4-1.1-2.4-2.4s1.1-2.4,2.4-2.4h23.7c1.3,0,2.4,1.1,2.4,2.4S235.6,139,234.3,139z
					"/>
			</g>
		</g>
	</g>
</g>
<g>
</g>
<g>
</g>
<g>
</g>
<g>
</g>
<g>
</g>
<g>
</g>
<g>
</g>
<g>
</g>
<g>
</g>
<g>
</g>
<g>
</g>
<g>
</g>
<g>
</g>
<g>
</g>
<g>
</g>
</svg>
